<svg viewBox="0 0 369.66666666666663 97.11038805836212" preserveAspectRatio="xMidYMid meet" class="css-6og3dc" id="hhgaeeff" xmlns="http://www.w3.org/2000/svg"><defs id="SvgjsDefs1001"><linearGradient id="SvgjsLinearGradient1011"><stop id="SvgjsStop1012" stop-color="#00ff8f" offset="0"></stop><stop id="SvgjsStop1013" stop-color="#00a1ff" offset="1"></stop></linearGradient></defs><g id="SvgjsG1007" featurekey="QMusi1-0" transform="matrix(0.9711039066314697,0,0,0.9711039066314697,0,0)" fill="url(#symbol-foil0.5)"><polygon xmlns="http://www.w3.org/2000/svg" fill="url(#SvgjsLinearGradient1011)" points="42.955,26.116 42.955,26.116 42.955,26.116 "></polygon><path xmlns="http://www.w3.org/2000/svg" fill="url(#SvgjsLinearGradient1011)" d="M57.912,82.308c3.934-0.634,7.849-4.734,7.849-9.734V36.021c0-5.161-4.341-9.896-10.239-9.896l-12.567-0.009  l-12.664,0.009c-5.896,0-10.238,4.736-10.238,9.896v36.552c0,5,3.916,9.101,7.848,9.734L16.106,100h6.804l8.437-12.369h11.55h0.009  h0.011h11.547L62.902,100h6.806L57.912,82.308z M36.261,29.887c0-0.897,0.78-1.651,1.679-1.651h4.957h0.009h0.011h4.957  c0.897,0,1.677,0.753,1.677,1.651v2.906c0,0.896-0.737,1.668-1.677,1.668h-4.957h-0.011h-0.009H37.94  c-0.941,0-1.679-0.772-1.679-1.668V29.887z M30.078,76.977c-2.479,0-4.49-2.011-4.49-4.488c0-2.479,2.011-4.49,4.49-4.49  c2.479,0,4.488,2.011,4.488,4.49C34.566,74.966,32.557,76.977,30.078,76.977z M42.906,53.229h-0.009H30.632  c-2.818,0-5.127-1.935-5.101-5.096v-6.58c0-2.735,1.77-5.122,5.101-5.122h12.265h0.021h12.263c3.332,0,5.102,2.387,5.102,5.122v6.58  c0.025,3.162-2.281,5.096-5.102,5.096H42.917H42.906z M51.143,72.488c0-2.479,2.009-4.49,4.488-4.49s4.488,2.011,4.488,4.49  s-2.009,4.488-4.488,4.488S51.143,74.966,51.143,72.488z"></path><circle xmlns="http://www.w3.org/2000/svg" fill="url(#SvgjsLinearGradient1011)" cx="39.139" cy="22.222" r="2.836"></circle><circle xmlns="http://www.w3.org/2000/svg" fill="url(#SvgjsLinearGradient1011)" cx="46.674" cy="22.222" r="2.836"></circle><path xmlns="http://www.w3.org/2000/svg" fill="url(#SvgjsLinearGradient1011)" d="M73.245,12.567C65.143,4.463,54.367,0,42.906,0S20.67,4.463,12.567,12.567C4.462,20.671,0,31.446,0,42.906  v46.141h8.2V42.906c0-19.137,15.569-34.707,34.707-34.707s34.707,15.57,34.707,34.707v46.141h8.199V42.906  C85.812,31.445,81.351,20.671,73.245,12.567z"></path></g><g id="SvgjsG1008" featurekey="UyNsn2-0" transform="matrix(2.8344674110412598,0,0,2.8344674110412598,103.2834467970665,11.843536959842336)" fill="url(#symbol-foil0.1)"><path d="M4.72 12.74 l3.76 -7.02 l3.62 0 l-3.78 6.88 l4.24 7.4 l-3.64 0 z M1.42 8.2 l-1.52 0 l1.3 -2.5 l3.46 0 l0 14.32 l-3.24 0 l0 -11.82 z M17.7 9.44 c0.69334 0 1.34 0.09668 1.94 0.29002 s1.1167 0.50334 1.55 0.93 s0.77334 0.98 1.02 1.66 s0.37 1.5 0.37 2.46 s-0.12334 1.78 -0.37 2.46 s-0.58666 1.2333 -1.02 1.66 s-0.95 0.73666 -1.55 0.93 s-1.2467 0.29 -1.94 0.29 c-0.70666 0 -1.3567 -0.09666 -1.95 -0.29 s-1.1067 -0.50334 -1.54 -0.93 s-0.77334 -0.98 -1.02 -1.66 s-0.37 -1.5 -0.37 -2.46 c0 -0.94666 0.12334 -1.7567 0.37 -2.43 s0.58666 -1.2267 1.02 -1.66 s0.94668 -0.75 1.54 -0.95 s1.2433 -0.3 1.95 -0.3 z M17.7 17.5 c0.6 0 1.07 -0.2 1.41 -0.6 s0.51 -1.1067 0.51 -2.12 s-0.17 -1.7233 -0.51 -2.13 s-0.81 -0.61 -1.41 -0.61 c-0.58666 0 -1.0567 0.21 -1.41 0.63 s-0.53 1.1233 -0.53 2.11 c0 1.0133 0.17334 1.72 0.52 2.12 s0.82 0.6 1.42 0.6 z M24.96 12.04 l-1.66 0 l1.32 -2.48 l2.9 0 l0.24 1.12 c0.30666 -0.34666 0.68332 -0.63 1.13 -0.85 s0.96332 -0.33 1.55 -0.33 c1.3733 0 2.3534 0.5 2.94 1.5 c0.33334 -0.46666 0.72668 -0.83332 1.18 -1.1 s1.02 -0.4 1.7 -0.4 c1.2 0 2.0766 0.31666 2.63 0.95 s0.83 1.6433 0.83 3.03 l0 6.52 l-3.04 0 l0 -5.98 c0 -0.64 -0.10334 -1.0933 -0.31 -1.36 s-0.56332 -0.4 -1.07 -0.4 c-0.21334 0 -0.41 0.02334 -0.59 0.07 s-0.33334 0.13332 -0.46 0.25998 s-0.22666 0.3 -0.3 0.52 s-0.11 0.51 -0.11 0.87 l0 6.02 l-3.04 0 l0 -6.02 c0 -0.66666 -0.11666 -1.12 -0.35 -1.36 s-0.55668 -0.36 -0.97002 -0.36 c-0.2 0 -0.38666 0.02 -0.56 0.06 s-0.33 0.12 -0.47 0.24 s-0.25 0.29334 -0.33 0.52 s-0.12 0.52666 -0.12 0.9 l0 6.02 l-3.04 0 l0 -7.96 z M42.76 12.04 l-1.66 0 l1.32 -2.48 l2.9 0 l0.24 1.12 c0.30666 -0.34666 0.68332 -0.63 1.13 -0.85 s0.96332 -0.33 1.55 -0.33 c1.3733 0 2.3534 0.5 2.94 1.5 c0.33334 -0.46666 0.72668 -0.83332 1.18 -1.1 s1.02 -0.4 1.7 -0.4 c1.2 0 2.0766 0.31666 2.63 0.95 s0.83 1.6433 0.83 3.03 l0 6.52 l-3.04 0 l0 -5.98 c0 -0.64 -0.10334 -1.0933 -0.31 -1.36 s-0.56332 -0.4 -1.07 -0.4 c-0.21334 0 -0.41 0.02334 -0.59 0.07 s-0.33334 0.13332 -0.46 0.25998 s-0.22666 0.3 -0.3 0.52 s-0.11 0.51 -0.11 0.87 l0 6.02 l-3.04 0 l0 -6.02 c0 -0.66666 -0.11666 -1.12 -0.35 -1.36 s-0.55668 -0.36 -0.97002 -0.36 c-0.2 0 -0.38666 0.02 -0.56 0.06 s-0.33 0.12 -0.47 0.24 s-0.25 0.29334 -0.33 0.52 s-0.12 0.52666 -0.12 0.9 l0 6.02 l-3.04 0 l0 -7.96 z M68.32 8.2 l-1.42 0 l1.3 -2.48 l4.4 0 l4.48 14.28 l-3.44 0 l-0.8 -2.86 l-0.78 0.06 l-2.78 0 l-0.68 -0.06 l-0.82 2.86 l-3.22 0 z M72.06 14.42 l-1.32 -4.76 l-1.4 4.76 l2.72 0 z M78.86 12.04 l-1.68 0 l1.32 -2.48 l2.9 0 l0.26 1.12 c0.33334 -0.36 0.73 -0.66 1.19 -0.9 s0.99 -0.36 1.59 -0.36 c1.2133 0 2.1134 0.32334 2.7 0.97 s0.88 1.67 0.88 3.07 l0 6.54 l-3.04 0 l0 -6.02 c0 -0.61334 -0.15 -1.0533 -0.45 -1.32 s-0.68334 -0.4 -1.15 -0.4 c-0.38666 0 -0.73332 0.13 -1.04 0.39 s-0.46 0.69 -0.46 1.29 l0 6.06 l-3.02 0 l0 -7.96 z M90.56 5.800000000000001 l3.42 0 l-0.2 9.8 l-3.04 0 z M90.76 20 l0 -3.26 l3.02 0 l0 3.26 l-3.02 0 z"></path></g></svg>